# xmcd
#
# Track frame offsets: 
#        150
#        22159
#        42572
#        64068
#        85944
#        107097
#        118986
#        146754
#        168665
#        192013
#        210769
#        228068
#        239332
#        260273
#        277015
#        296842
#        327951
#
# Disc length: 4714 seconds
#
# Revision: 4
# Processed by: cddbd v1.5.2PL0 Copyright (c) Steve Scherf et al.
# Submitted via: ExactAudioCopy v1.0b1
#
DISCID=00126811
DTITLE=Various Artist - Terry Lee Brown Junior - Terry's Cafe 7
DYEAR=2004
DGENRE=Deep House, Tech House
TTITLE0=Unai - Stars In Your Eyes
TTITLE1=Interpolar - Nonstop Unterwegs (Vers. 1)
TTITLE2=Carstein Fietz presents Submeditation - Boxmusic
TTITLE3=Dub Taylor - Before You Go
TTITLE4=Razoof - I Just Wanna Thank God (Salz Remix)
TTITLE5=Tony Anderson Project - Marzipan Ladder (Mark Broom Mix)
TTITLE6=Spiritchaser - As We Continue
TTITLE7=Osborne - Daylight
TTITLE8=Rulers Of The Deep - Elu On Mu Ilu
TTITLE9=Jean F. Cochois (aka The Timewriter) - Night Train
TTITLE10=Gunga - Amur
TTITLE11=Sixtyniners present Smoken Machine - Bring To Us
TTITLE12=Pete Moss - Right On
TTITLE13=The Faction - A Little Lit
TTITLE14=Soda Inc. - Solo Sour
TTITLE15=Terry Lee Brown Junior - Deeper Solidity
TTITLE16=Jean F. Cochois (aka The Timewriter) - I Wanna Know
EXTD=Terry's Café Vol. 7 YEAR: 2004
EXTT0=
EXTT1=
EXTT2=
EXTT3=
EXTT4=
EXTT5=
EXTT6=
EXTT7=
EXTT8=
EXTT9=
EXTT10=
EXTT11=
EXTT12=
EXTT13=
EXTT14=
EXTT15=
EXTT16=
PLAYORDER=
